Coordinates
version=1
nRows=5
nColumns=40
inDegrees=yes

Units are S.I. units (second, meters, Newtons, ...)
Angles are in degrees.

endheader
time	pelvis_tilt	pelvis_list	pelvis_rotation	pelvis_tx	pelvis_ty	pelvis_tz	hip_flexion_r	hip_adduction_r	hip_rotation_r	knee_angle_r	knee_angle_r_beta	ankle_angle_r	subtalar_angle_r	mtp_angle_r	hip_flexion_l	hip_adduction_l	hip_rotation_l	knee_angle_l	knee_angle_l_beta	ankle_angle_l	subtalar_angle_l	mtp_angle_l	lumbar_extension	lumbar_bending	lumbar_rotation	arm_flex_r	arm_add_r	arm_rot_r	elbow_flex_r	pro_sup_r	wrist_flex_r	wrist_dev_r	arm_flex_l	arm_add_l	arm_rot_l	elbow_flex_l	pro_sup_l	wrist_flex_l	wrist_dev_l
     17.23250000	     -5.50561156	     -5.98431165	      1.00250541	      1.03535275	      0.93163149	      0.51106847	      9.44018703	      4.75956109	    -18.13971632	     11.02566245	     11.02566245	      8.26114156	      4.04911195	     -5.03723019	     38.34102895	    -13.42241305	      1.71097999	     55.50824032	     55.50824032	     11.18387890	    -18.71373303	     15.28252043	    -13.12765873	      6.59170845	      4.33501484	     26.77434167	    -15.76438413	     -2.97783378	     51.24798637	     45.81093165	      0.00000000	      0.00000000	      3.43313633	     -7.91318449	      2.27847138	     39.48218909	     47.06055750	      0.00000000	      0.00000000
     17.24357143	     -5.94537321	     -6.88726420	      1.87125540	      1.03240869	      0.92954125	      0.51023183	      9.49587008	      5.73691156	    -18.42112831	     10.76435536	     10.76435536	      8.51617571	      3.03993588	     -4.99808726	     40.13597246	    -13.38606486	      3.23415803	     53.22741438	     53.22741438	     10.58433966	    -18.49457572	     14.60061057	    -12.71407800	      7.61171100	      3.96947879	     28.90501930	    -16.70866205	     -1.46738120	     53.73166725	     45.65410759	      0.00000000	      0.00000000	      3.23288030	     -7.39924144	      2.10198916	     35.28267478	     47.00906321	      0.00000000	      0.00000000
     17.25464286	     -6.25384664	     -7.43960223	      2.53497352	      1.03016316	      0.92798004	      0.50947107	      9.34740400	      6.31401030	    -18.81078760	     10.51562350	     10.51562350	      8.86243645	      2.71335799	     -5.07871003	     41.34826356	    -13.05874381	      4.43159294	     50.60292888	     50.60292888	     10.24481710	    -18.15449791	     14.66396194	    -12.41486089	      8.19968979	      3.29034684	     31.32614627	    -16.67198070	     -1.47835705	     55.64659188	     45.59707966	      0.00000000	      0.00000000	      1.86929627	     -7.39927646	      2.17143595	     33.72481203	     46.96392126	      0.00000000	      0.00000000
     17.26571429	     -6.38403814	     -7.60613099	      2.94864944	      1.02867202	      0.92706406	      0.50885821	      8.89081350	      6.54042248	    -18.86997799	     10.18914109	     10.18914109	      9.23596380	      2.46341609	     -5.16252368	     41.86458726	    -12.57080428	      5.13042090	     47.61693604	     47.61693604	      9.98055703	    -17.54834225	     14.44712116	    -12.33391423	      8.31373318	      2.79087705	     33.59431451	    -16.70286478	     -1.18722741	     57.84870342	     45.51762738	      0.00000000	      0.00000000	      0.68540935	     -7.34489081	      2.21052042	     31.64806763	     46.92532028	      0.00000000	      0.00000000
     17.27678571	     -6.53858833	     -7.63823525	      3.15288042	      1.02758902	      0.92627405	      0.50834152	      8.50131701	      6.59413243	    -18.86667043	     10.02893147	     10.02893147	      9.64146452	      2.37986201	     -5.30822742	     42.17230700	    -12.15042134	      5.52109783	     44.57309498	     44.57309498	      9.90712212	    -16.52247793	     14.62826765	    -12.13486025	      8.27629496	      3.10780401	     35.63368033	    -17.27416024	     -1.32365376	     59.01553547	     45.49267480	      0.00000000	      0.00000000	     -0.49062189	     -7.27601577	      2.22546930	     30.74315857	     46.90115920	      0.00000000	      0.00000000
